<?xml version="1.0" encoding="UTF-8"?>
<svg id="Camada_2" data-name="Camada 2" xmlns="http://www.w3.org/2000/svg" viewBox="0 0 1080 1080">
  <defs>
    <style>
      .cls-1 {
        fill: #fff;
      }
    </style>
  </defs>
  <g id="Camada_1-2" data-name="Camada 1">
    <rect class="cls-1" width="1080" height="1080"/>
    <path d="M723.4,569.72l46.34-54.1v-114.3l-50.32-59.44h-156.25l-24.32,28.36-24.01-28.36h-150.95l-50.98,59.44v76.96h53.63v-36.58c0-15.74,4.08-28.06,12.25-36.95,8.16-8.89,19.09-13.34,32.77-13.34h52.97c15,0,26.7,4.83,35.09,14.48,8.38,9.66,12.58,22.86,12.58,39.63v60.2h-150.95l-50.98,58.67v114.3l50.98,59.44h127.78l30.46-35.05,17.88,35.05h180.08l50.98-59.44v-77.72h-52.97v38.86c0,14.74-4.09,26.55-12.25,35.43-8.17,8.89-19.1,13.34-32.77,13.34h-56.94c-15.01,0-26.71-4.82-35.09-14.48-8.39-9.64-12.58-22.86-12.58-39.62v-64.77h157.58ZM565.82,445.51c0-16.76,4.19-29.97,12.58-39.63,8.38-9.64,20.08-14.48,35.09-14.48h60.25c13.24,0,23.72,4.19,31.45,12.57,7.72,8.38,11.59,19.94,11.59,34.67v40.39c0,14.23-3.97,25.41-11.92,33.53-7.95,8.13-18.77,12.19-32.44,12.19h-106.59v-79.25ZM453.27,688.59h-47.67c-13.24,0-23.5-4.19-30.79-12.57-7.28-8.38-10.92-19.93-10.92-34.67v-43.43c0-14.73,3.86-26.03,11.59-33.91,7.72-7.87,18.64-11.81,32.77-11.81h103.95v64.77c0,22.36-5.3,39.88-15.89,52.58-10.59,12.71-24.94,19.05-43.04,19.05Z"/>
  </g>
</svg>