<?xml version="1.0" encoding="UTF-8"?>
<svg id="Camada_2" data-name="Camada 2" xmlns="http://www.w3.org/2000/svg" viewBox="0 0 1080 931.35">
  <defs>
    <style>
      .cls-1 {
        fill: #fff;
      }
    </style>
  </defs>
  <g id="Camada_1-2" data-name="Camada 1">
    <path class="cls-1" d="M971.07,535.52l108.93-127.17V139.7L961.73,0h-367.26l-57.17,66.65L480.87,0H126.05L6.23,139.7v180.9h126.05v-85.97c0-37,9.58-65.95,28.79-86.86,19.19-20.89,44.86-31.35,77.03-31.35h124.49c35.26,0,62.76,11.36,82.48,34.03,19.7,22.7,29.57,53.74,29.57,93.14v141.5H119.83L0,522.99v268.66l119.83,139.7h300.34l71.59-82.39,42.02,82.39h423.28l119.83-139.7v-182.69h-124.49v91.34c0,34.65-9.61,62.41-28.79,83.28-19.21,20.91-44.88,31.35-77.03,31.35h-133.83c-35.29,0-62.78-11.34-82.48-34.04-19.72-22.67-29.57-53.73-29.57-93.13v-152.25h370.38ZM600.69,243.58c0-39.4,9.85-70.44,29.57-93.14,19.7-22.67,47.19-34.03,82.48-34.03h141.61c31.12,0,55.76,9.86,73.92,29.56,18.14,19.7,27.23,46.87,27.23,81.49v94.93c0,33.44-9.34,59.72-28.01,78.81-18.67,19.11-44.11,28.65-76.25,28.65h-250.55v-186.27ZM336.14,814.94h-112.04c-31.12,0-55.25-9.85-72.37-29.55-17.12-19.7-25.67-46.85-25.67-81.5v-102.09c0-34.62,9.07-61.18,27.23-79.71,18.14-18.49,43.82-27.76,77.03-27.76h244.32v152.25c0,52.55-12.45,93.75-37.35,123.58-24.9,29.86-58.63,44.78-101.15,44.78Z"/>
  </g>
</svg>